<svg xmlns="http://www.w3.org/2000/svg" width="56.783" height="32.797" viewBox="0 0 56.783 32.797"><defs><style>.a{fill:#fff;}</style></defs><path class="a" d="M2547.747,34.935a4.69,4.69,0,0,0-1.134,1.536,3.932,3.932,0,0,0-.434,1.7q.009.781.459.929a1.286,1.286,0,0,0,1.124-.435,4.772,4.772,0,0,0,1.114-1.551,3.948,3.948,0,0,0,.434-1.7q-.01-.781-.458-.9-.469-.147-1.106.418m-5.972-7.373-.054.051a7.353,7.353,0,0,0-2.044,2.342c.018-.14.028-.278.032-.417q.156-1.541-.868-.713a3.671,3.671,0,0,0-.57.72,1.367,1.367,0,0,0-.716-.419,3.1,3.1,0,0,0-2.451.691.244.244,0,0,1-.056.035,7.6,7.6,0,0,0-2.166,2.54,6.422,6.422,0,0,0-.466,1.176,5.094,5.094,0,0,0,.026-1.15,1.65,1.65,0,0,0-1.248-1.6,2.587,2.587,0,0,0-1.915.371.635.635,0,0,0-.8.049q-.516.35-1.137.851-7.709,6.338-12.557,8.61a12.682,12.682,0,0,1-3.707,1.182q-2.322.3-2.47-1.19-.013-1.8,3.006-7.041a83.563,83.563,0,0,1,5.826-8.919q2.771-3.645,1.771-4a4.978,4.978,0,0,0-2.851.109,2.168,2.168,0,0,0-1.05.718,93.308,93.308,0,0,0-9,16q-1.129,3.195.053,4.654,1.7,1.539,6.68.089.659-.2,1.353-.465a35.672,35.672,0,0,0,4.807-2.317,55.662,55.662,0,0,0,6.92-4.471,5,5,0,0,0-.264,1.962,1.7,1.7,0,0,0,1.266,1.582,2.9,2.9,0,0,0,2.213-.517l.221-.141a7.287,7.287,0,0,0,2.2-2.574,7.467,7.467,0,0,0,.5-1.227,3.875,3.875,0,0,0-.042,1.2,1.668,1.668,0,0,0,1.247,1.583,2.9,2.9,0,0,0,2.231-.534,1.369,1.369,0,0,0,.2-.156,5.565,5.565,0,0,0,.93-.79q.392.455-1.035,4.752-1.409,4.28-2.876,5.071a1.654,1.654,0,0,1-2.417-.65,4.338,4.338,0,0,1-.888-2.626q.082-1.17-.7-1.138-.578-.045-1.511,1.32-.385.6.372,2.657.757,2.044,3.808,2.065,3.126-.955,5.135-4.809a22.818,22.818,0,0,0,2.419-8.169,1.5,1.5,0,0,0,1,.752,2.964,2.964,0,0,0,2.232-.5,1.344,1.344,0,0,1,.2-.156,6.876,6.876,0,0,0,2.2-2.574,5.108,5.108,0,0,0,.684-2.944,1.651,1.651,0,0,0-1.229-1.6,3.052,3.052,0,0,0-2.453.675m-5.436,3.025a.768.768,0,0,1,.758.464,2.465,2.465,0,0,1,0,1.547,3.563,3.563,0,0,1-1.114,1.87,1.953,1.953,0,0,1-1.472.712.8.8,0,0,1-.757-.767,2.726,2.726,0,0,1,.342-1.632,5.158,5.158,0,0,1,1.075-1.565,1.821,1.821,0,0,1,1.17-.629m3.994,1.655a3.608,3.608,0,0,1,.434-1.7,4.663,4.663,0,0,1,1.114-1.551q.657-.566,1.125-.419.449.132.44.915a3.952,3.952,0,0,1-.434,1.7,4.445,4.445,0,0,1-1.114,1.551,1.255,1.255,0,0,1-1.106.418q-.468-.131-.458-.913m-11.466.681a1.243,1.243,0,0,1,1.1-.434q.469.147.478.912A4.192,4.192,0,0,1,2530,35.12a4.828,4.828,0,0,1-1.115,1.535q-.637.565-1.106.418-.449-.116-.476-.9a3.826,3.826,0,0,1,.453-1.7,4.777,4.777,0,0,1,1.114-1.551M2560.2,18.245q3.1-3.633,2.1-4a5.174,5.174,0,0,0-2.87.126,2.3,2.3,0,0,0-1.05.717,94.951,94.951,0,0,0-9,16,9.8,9.8,0,0,0-.423,1.557q.452,2.093,4.3-4.344A74.116,74.116,0,0,1,2560.2,18.245Z" transform="translate(-2505.755 -14.093)"/></svg>