<svg xmlns="http://www.w3.org/2000/svg" width="69" height="60" viewBox="0 0 69 60"><defs>
<style>.a{fill:#007bff;}.b{fill:none;}.c,.d{stroke:none;}.d{fill:#007bff;}</style>
</defs>
<path class="a" d="M39.374,29.467q0,7.186-3.878,10.379A13.435,13.435,0,0,1,26.6,42.7H9.148V16.35H26.6a12.793,12.793,0,0,1,8.9,3.079,9.845,9.845,0,0,1,2.851,4.106,15.615,15.615,0,0,1,1.027,5.931Zm-1.711,0q0-5.817-3.308-8.783-2.967-2.623-8.1-2.623h-15.4V40.986h15.4q11.4,0,11.406-11.52Zm-22.7-5.019a2.726,2.726,0,1,0,1.939.8A2.644,2.644,0,0,0,14.965,24.448ZM12.455,39.276h4.9v-8.1h-4.9v8.1Zm20.189-9.467h3.422q0,9.469-10.608,9.467H19.641V29.809h.57a2.374,2.374,0,0,0,.913-.114,2.619,2.619,0,0,0,.685-.342,2.684,2.684,0,0,0,.57-.913,2.861,2.861,0,0,0,.114-1.026,3.657,3.657,0,0,0-.057-.57,3.233,3.233,0,0,1-.057-.456,3.128,3.128,0,0,0-.285-.456.692.692,0,0,1-.171-.342,1.258,1.258,0,0,0-.8-.456,2.4,2.4,0,0,0-.913-.114h-.57V20.228h5.817q10.035,0,10.608,8.555H33.9V25.018H32.644v4.791Zm-11.406-2.4v.8l-.228.342c-.153.153-.268.228-.342.228H19.641V26.045h.913a.662.662,0,0,1,.456.228c0,.076.075.19.228.342v.8Zm5.817,1.368H24.432v-.913h2.281V26.843H24.432v-.8h2.509V25.018h-3.65v4.791h3.764V28.782Zm5.132,1.027-1.825-4.791H29.108l-1.825,4.791h1.255l.342-1.026h1.711a6.783,6.783,0,0,0,.342,1.026Zm-2.851-2.053.228-.685a1.905,1.905,0,0,0,.114-.57,3.623,3.623,0,0,1,.456,1.255Z" transform="translate(11.739 0.476)"/>
<g class="b">
<path class="c" d="M10,0H59A10,10,0,0,1,69,10V50A10,10,0,0,1,59,60H10A10,10,0,0,1,0,50V10A10,10,0,0,1,10,0Z"/><path class="d" d="M 10 2 C 5.588787078857422 2 2 5.588787078857422 2 10 L 2 50 C 2 54.41120910644531 5.588787078857422 58 10 58 L 59 58 C 63.41120910644531 58 67 54.41120910644531 67 50 L 67 10 C 67 5.588787078857422 63.41120910644531 2 59 2 L 10 2 M 10 0 L 59 0 C 64.52284240722656 0 69 4.477153778076172 69 10 L 69 50 C 69 55.52284240722656 64.52284240722656 60 59 60 L 10 60 C 4.477142333984375 60 0 55.52284240722656 0 50 L 0 10 C 0 4.477153778076172 4.477142333984375 0 10 0 Z"/>
</g>
</svg>