<svg xmlns="http://www.w3.org/2000/svg" width="264.403" height="152.717" viewBox="0 0 264.403 152.717"><defs><style>.a{fill:#fff;}</style></defs><path class="a" d="M2701.284,111.142A21.829,21.829,0,0,0,2696,118.3a18.312,18.312,0,0,0-2.02,7.922q.042,3.637,2.138,4.326,2.179.61,5.234-2.026a22.216,22.216,0,0,0,5.188-7.223,18.387,18.387,0,0,0,2.021-7.92q-.046-3.637-2.131-4.18-2.184-.684-5.15,1.947m-27.806-34.33-.254.237a34.243,34.243,0,0,0-9.519,10.9c.082-.65.131-1.3.15-1.941q.727-7.173-4.041-3.319a17.082,17.082,0,0,0-2.654,3.355,6.363,6.363,0,0,0-3.334-1.951q-5.073-1.179-11.414,3.218a1.131,1.131,0,0,1-.258.164A35.376,35.376,0,0,0,2632.067,99.3a29.875,29.875,0,0,0-2.167,5.477,23.774,23.774,0,0,0,.122-5.353q-.734-6.2-5.811-7.446-3.993-1.022-8.915,1.73a2.956,2.956,0,0,0-3.738.227q-2.4,1.632-5.3,3.961-35.9,29.51-58.471,40.089-9.9,4.611-17.259,5.5-10.811,1.4-11.5-5.54-.062-8.388,14-32.784a389.184,389.184,0,0,1,27.127-41.529q12.9-16.973,8.244-18.623-4.658-1.721-13.273.509-3.923,1.65-4.888,3.343-28.919,42.9-41.915,74.508-5.259,14.877.246,21.672,7.936,7.167,31.1.413,3.066-.927,6.3-2.164a166.053,166.053,0,0,0,22.385-10.79,259.15,259.15,0,0,0,32.224-20.821,23.281,23.281,0,0,0-1.231,9.134q.909,6.11,5.895,7.367,4.535,1.134,10.3-2.409l1.031-.656a33.919,33.919,0,0,0,10.256-11.987,34.732,34.732,0,0,0,2.333-5.712,18.032,18.032,0,0,0-.2,5.584q.817,6.113,5.8,7.371,4.624,1.128,10.388-2.488a6.312,6.312,0,0,0,.936-.725,25.911,25.911,0,0,0,4.332-3.68q1.824,2.118-4.818,22.128-6.562,19.929-13.392,23.613t-11.256-3.029q-4.527-6.856-4.136-12.226.382-5.447-3.27-5.3-2.693-.207-7.038,6.146-1.8,2.781,1.734,12.37,3.523,9.516,17.73,9.618,14.553-4.448,23.912-22.394a106.23,106.23,0,0,0,11.266-38.04,6.97,6.97,0,0,0,4.679,3.5q4.622,1.131,10.395-2.34a6.258,6.258,0,0,1,.937-.725,32.03,32.03,0,0,0,10.259-11.985q3.919-7.517,3.185-13.711t-5.721-7.452q-5.082-1.25-11.42,3.145M2648.167,90.9a3.574,3.574,0,0,1,3.528,2.162q1.106,2.088-.01,7.2a16.581,16.581,0,0,1-5.187,8.707q-3.8,3.646-6.854,3.313a3.726,3.726,0,0,1-3.523-3.574q-.549-3.234,1.594-7.6a24.013,24.013,0,0,1,5.006-7.286q2.863-2.846,5.447-2.93m18.6,7.708a16.792,16.792,0,0,1,2.021-7.92,21.708,21.708,0,0,1,5.185-7.223q3.056-2.636,5.241-1.953,2.092.616,2.046,4.259a18.4,18.4,0,0,1-2.02,7.92,20.722,20.722,0,0,1-5.188,7.223q-2.969,2.556-5.151,1.947t-2.134-4.253m-53.39,3.169q2.966-2.633,5.145-2.022,2.186.684,2.224,4.247a19.528,19.528,0,0,1-2.1,8,22.474,22.474,0,0,1-5.192,7.148q-2.967,2.63-5.151,1.947-2.089-.542-2.218-4.172a17.815,17.815,0,0,1,2.108-7.927,22.238,22.238,0,0,1,5.188-7.221m145.88-68.348q14.424-16.917,9.766-18.639-4.745-1.644-13.363.588-3.829,1.644-4.887,3.341-28.83,42.894-41.913,74.51a45.582,45.582,0,0,0-1.969,7.25q2.106,9.747,20.024-20.228Q2744.744,50.353,2759.255,33.429Z" transform="translate(-2505.754 -14.093)"/></svg>