<svg xmlns="http://www.w3.org/2000/svg" width="69" height="60" viewBox="0 0 69 60"><defs><style>.a,.c{fill:none;}.a{stroke:#707070;}.b{stroke:none;}</style></defs><g class="a"><rect class="b" width="69" height="60" rx="10"/><rect class="c" x="0.5" y="0.5" width="68" height="59" rx="9.5"/></g><path d="M28.168,23.3h-1.74a.5.5,0,0,0-.415.22l-2.4,3.534-1.017-3.4a.5.5,0,0,0-.481-.358H20.4a.3.3,0,0,0-.285.4l1.915,5.623-1.8,2.542a.3.3,0,0,0,.246.475h1.738a.5.5,0,0,0,.413-.216l5.785-8.35a.3.3,0,0,0-.248-.473Zm-11.63,3.369a1.93,1.93,0,0,1-1.954,1.653,1.341,1.341,0,0,1-1.434-1.683,1.936,1.936,0,0,1,1.94-1.665,1.458,1.458,0,0,1,1.154.472,1.49,1.49,0,0,1,.294,1.224ZM18.95,23.3H17.219a.3.3,0,0,0-.3.255l-.076.483-.121-.175a2.466,2.466,0,0,0-2.045-.726,3.98,3.98,0,0,0-3.863,3.482,3.266,3.266,0,0,0,.645,2.659,2.708,2.708,0,0,0,2.179.88,3.314,3.314,0,0,0,2.4-.99l-.077.481a.3.3,0,0,0,.3.348h1.559a.5.5,0,0,0,.5-.424l.936-5.925a.3.3,0,0,0-.3-.348Zm-10.387.041c-.2,1.3-1.188,1.3-2.147,1.3H5.871l.382-2.422a.3.3,0,0,1,.3-.254H6.8c.652,0,1.269,0,1.586.371a1.207,1.207,0,0,1,.176,1.008Zm-.417-3.385H4.532a.5.5,0,0,0-.5.424L2.574,29.644a.3.3,0,0,0,.3.348H4.6a.5.5,0,0,0,.5-.424l.395-2.5a.5.5,0,0,1,.5-.424H7.128a3.712,3.712,0,0,0,4.114-3.436,2.783,2.783,0,0,0-.461-2.332,3.35,3.35,0,0,0-2.634-.924Zm38.624.255-1.483,9.438a.3.3,0,0,0,.3.348h1.492a.5.5,0,0,0,.5-.424L49.035,20.3a.3.3,0,0,0-.3-.348H47.068a.3.3,0,0,0-.3.255Zm-4.452,6.458a1.93,1.93,0,0,1-1.954,1.653,1.341,1.341,0,0,1-1.434-1.683,1.937,1.937,0,0,1,1.94-1.665,1.458,1.458,0,0,1,1.154.472,1.49,1.49,0,0,1,.294,1.224ZM44.731,23.3H43a.3.3,0,0,0-.3.255l-.076.484-.121-.175a2.464,2.464,0,0,0-2.045-.726A3.98,3.98,0,0,0,36.6,26.615a3.266,3.266,0,0,0,.645,2.659,2.708,2.708,0,0,0,2.179.88,3.314,3.314,0,0,0,2.4-.99l-.077.481a.3.3,0,0,0,.3.348H43.6a.5.5,0,0,0,.5-.424l.936-5.925a.3.3,0,0,0-.3-.348Zm-10.387.041c-.2,1.3-1.188,1.3-2.147,1.3h-.545l.382-2.422a.3.3,0,0,1,.3-.254h.25c.652,0,1.269,0,1.586.371a1.209,1.209,0,0,1,.175,1.008Zm-.417-3.385H30.312a.5.5,0,0,0-.5.424l-1.461,9.268a.3.3,0,0,0,.3.348h1.855a.352.352,0,0,0,.347-.3l.415-2.628a.5.5,0,0,1,.5-.424h1.144a3.712,3.712,0,0,0,4.114-3.436,2.783,2.783,0,0,0-.461-2.332,3.35,3.35,0,0,0-2.634-.924Z" transform="translate(8.695 3.127)"/></svg>